<?xml version="1.0" encoding="utf-8"?>
<!-- Generator: Adobe Illustrator 27.6.1, SVG Export Plug-In . SVG Version: 6.00 Build 0)  -->
<svg version="1.1" id="Layer_1" xmlns="http://www.w3.org/2000/svg" xmlns:xlink="http://www.w3.org/1999/xlink" x="0px" y="0px"
	 viewBox="0 0 681.8 643.3" style="enable-background:new 0 0 681.8 643.3;" xml:space="preserve">
<style type="text/css">
	.st0{enable-background:new    ;}
	.st1{fill:#010101;}
	.st2{fill:url(#rect2970_00000026133065891408276920000008286273512097428663_);}
	.st3{fill:#FFFFFF;}
</style>
<g class="st0">
	<path class="st1" d="M85.4,179.2v34.7c0,26.8,5.5,46.8,16.5,60c11,13.3,26.2,19.9,45.5,19.9c17.3,0,30.9-4.8,40.5-14.4
		c9.7-9.6,14.5-21.4,14.5-35.3h25.9c0,8.4-1.6,16.8-4.9,25.3c-3.3,8.5-8.1,16.6-14.4,24.2c-6.3,7.6-14.9,13.8-25.8,18.4
		c-10.9,4.6-23.3,6.9-37.2,6.9c-26.8,0-48-9-63.5-27c-15.5-18-23.3-43.9-23.3-77.6v-35.8c0-33.4,7.9-59.5,23.6-78.1
		c15.7-18.6,36.9-27.9,63.5-27.9c13.3,0,25.3,2.3,36,6.9c10.7,4.6,19.3,10.8,25.8,18.6c6.5,7.8,11.5,16.2,15,25.4
		c3.5,9.2,5.2,18.6,5.2,28.3h-25.9c0-14.1-5-26.6-15.1-37.6c-10.1-10.9-23.8-16.4-41-16.4c-18.5,0-33.2,7-44.3,21
		C91,132.7,85.4,152.9,85.4,179.2z"/>
</g>
<g class="st0">
	<path class="st1" d="M488.2,313.8H464V77.1h24.2V313.8z"/>
</g>
<rect x="463.1" y="74.3" class="st1" width="25" height="240"/>
<rect x="472.7" y="74.3" class="st1" width="138.3" height="23"/>
<rect x="473.1" y="291.2" class="st1" width="138.3" height="23"/>
<rect x="398.7" y="74.3" class="st1" width="25" height="105"/>
<rect x="260.1" y="206.2" class="st1" width="25" height="108"/>
<rect x="202.5" y="206.2" class="st1" width="25.8" height="38"/>
<g id="g215">
	
		<linearGradient id="rect2970_00000160172934681468696150000011552444163424936363_" gradientUnits="userSpaceOnUse" x1="1369.8584" y1="377.5807" x2="4356.5996" y2="377.5807" gradientTransform="matrix(0.1741 0 0 -1 -123.7056 571.037)">
		<stop  offset="1.000000e-04" style="stop-color:#BF2126"/>
		<stop  offset="0.355" style="stop-color:#883772"/>
		<stop  offset="1" style="stop-color:#467FC1"/>
	</linearGradient>
	<path id="rect2970" style="fill:url(#rect2970_00000160172934681468696150000011552444163424936363_);" d="M258.5,73.3v105.9H114.8
		v27.7h283v106.8H424V206.8h79.2v0c0,0,0.2,0,0.3,0h0.2v0c0.7,0,4.6,0.1,10.1-1.8c5.9-2,12.7-6.4,18.1-7.8c6-1.6,9.1,1.1,14.6,6.8
		c2.5,2.6,5.3,5.3,8.6,7.1c2.7,1.4,5.5,2.1,8.7,1.7c0,0,0.9,0,2.2-0.3c0,0,0.1,0,0.1,0c0,0,0,0,0,0c1.1-0.3,2.6-0.8,4.3-1.9
		c4-2.5,9.2-7.8,14.3-10.3c2.6-1.3,5.1-1.7,7.8-1.2c2.8,0.6,5.3,2,8.6,3.8c3.2,1.7,6.7,3.3,10.7,3.7c4,0.3,8.3-0.7,13.1-3.5
		c0.2-0.1,0.4-0.2,0.6-0.2c0,0,0.6-0.2,1.7-1.1c1.2-0.9,2.7-2.3,4-3.9c1.3-1.6,1.9-2.6,2.2-3.3c0.3-0.7,0.3-0.8,1-1.6
		c0,0-0.7,0-1.8,0.1c-1.5,0.1-2.3,0.3-4.2,0.6c-1.7,0.2-3.2,0.4-4.9,0.2c-1.5-0.1-3-0.5-4.7-0.9c-0.9-0.5-2-1.2-3.4-2.5
		c-3.8-3.7-9.7-11.9-16.3-17c-3.4-2.6-6.7-4-10.1-3.9c-3.5,0.1-6.6,1.8-9.8,4.4c-6.8,5.6-11.2,12.8-16.1,12.4v0
		c-0.4,0-0.8,0-1.5-0.1c-1.7-0.2-3.8-0.6-6.1-1.8c-2.3-1.2-4.3-2.9-6.5-5.1c-2.1-2.1-4.2-4.5-6.4-6.2c-2.3-1.8-4.8-2.9-7.9-3
		c-3.1-0.1-6.6,0.8-10.5,2.3c-8.1,3.1-15.3,7.3-20.8,6.8v0h-0.2c-0.1,0-0.2,0-0.3,0v0H398.7v-54.6H387v4.5h-1.2v3.5h-3.9v13.6h-5
		v23.2h-2v-26.6h-4.5v-27.4c0-0.2,0,0,0-0.3c0-5.1-3.7-10-9.1-11.2v-4.6h-1.1V95h-0.7v-3.1h-1.6V95h-0.7v4.5H356v4.5
		c-5.3,1-9.4,5-9.8,10l0,0l0,28.9h-5.2v8.1h-4.8v-1c0-0.1-0.1-0.3-0.1-0.4c-0.1-0.2-0.1-0.4-0.2-0.5c-0.1-0.2-0.1-0.3-0.2-0.5
		c-0.1-0.2-0.2-0.3-0.3-0.5c-0.1-0.2-0.2-0.3-0.3-0.5c-0.1-0.1-0.2-0.3-0.4-0.4c-0.1-0.1-0.3-0.3-0.4-0.4c-0.1-0.1-0.3-0.2-0.4-0.4
		c-0.1-0.1-0.3-0.2-0.5-0.3c-0.2-0.1-0.3-0.2-0.5-0.3c-0.2-0.1-0.3-0.2-0.5-0.2c-0.2-0.1-0.3-0.1-0.5-0.2c-0.1,0-0.1,0-0.2,0H329
		h-0.1c-0.8-2.2-3-8.8-4.5-13.2c0,0-1.1,3-2.2,6H310v7.2h-20.5v4.4c-0.7,2.3-2.5,4-4.8,4.5v-81H258.5z"/>
</g>
<g class="st0">
	<path class="st3" d="M117.8,205.1v-24.3h5.2v24.3H117.8z"/>
	<path class="st3" d="M137.7,205.1v-24.3h5.2v24.3H137.7z"/>
	<path class="st3" d="M165,180.7c2.5,0,4.4,0.8,5.8,2.5c1.7,2,2.5,5.3,2.5,9.9c0,4.6-0.8,7.9-2.5,9.9c-1.4,1.7-3.3,2.5-5.8,2.5
		c-2.5,0-4.5-0.9-6-2.7c-1.5-1.8-2.3-5.1-2.3-9.7c0-4.6,0.8-7.9,2.5-9.9C160.5,181.5,162.5,180.7,165,180.7z M165,184.5
		c-0.6,0-1.1,0.2-1.6,0.5c-0.5,0.4-0.8,1-1.1,1.9c-0.3,1.2-0.5,3.2-0.5,6.1s0.2,4.8,0.5,5.9c0.3,1.1,0.7,1.8,1.1,2.1
		c0.5,0.4,1,0.5,1.6,0.5s1.1-0.2,1.6-0.5c0.5-0.4,0.8-1,1.1-1.9c0.3-1.2,0.5-3.2,0.5-6.1s-0.2-4.8-0.5-5.9c-0.3-1.1-0.7-1.8-1.1-2.1
		C166.1,184.7,165.6,184.5,165,184.5z"/>
	<path class="st3" d="M187.5,205.1v-24.3h5.2v24.3H187.5z"/>
	<path class="st3" d="M214.8,180.7c2.5,0,4.4,0.8,5.8,2.5c1.7,2,2.5,5.3,2.5,9.9c0,4.6-0.8,7.9-2.5,9.9c-1.4,1.7-3.3,2.5-5.8,2.5
		c-2.5,0-4.5-0.9-6-2.7c-1.5-1.8-2.3-5.1-2.3-9.7c0-4.6,0.8-7.9,2.5-9.9C210.3,181.5,212.3,180.7,214.8,180.7z M214.8,184.5
		c-0.6,0-1.1,0.2-1.6,0.5c-0.5,0.4-0.8,1-1.1,1.9c-0.3,1.2-0.5,3.2-0.5,6.1s0.2,4.8,0.5,5.9c0.3,1.1,0.7,1.8,1.1,2.1
		c0.5,0.4,1,0.5,1.6,0.5c0.6,0,1.1-0.2,1.6-0.5c0.5-0.4,0.8-1,1.1-1.9c0.3-1.2,0.5-3.2,0.5-6.1s-0.2-4.8-0.5-5.9
		c-0.3-1.1-0.7-1.8-1.1-2.1C215.9,184.7,215.4,184.5,214.8,184.5z"/>
	<path class="st3" d="M244.7,180.7c2.5,0,4.4,0.8,5.8,2.5c1.7,2,2.5,5.3,2.5,9.9c0,4.6-0.8,7.9-2.5,9.9c-1.4,1.7-3.3,2.5-5.8,2.5
		c-2.5,0-4.5-0.9-6-2.7c-1.5-1.8-2.3-5.1-2.3-9.7c0-4.6,0.8-7.9,2.5-9.9C240.2,181.5,242.2,180.7,244.7,180.7z M244.7,184.5
		c-0.6,0-1.1,0.2-1.6,0.5c-0.5,0.4-0.8,1-1.1,1.9c-0.3,1.2-0.5,3.2-0.5,6.1s0.2,4.8,0.5,5.9c0.3,1.1,0.7,1.8,1.1,2.1
		c0.5,0.4,1,0.5,1.6,0.5c0.6,0,1.1-0.2,1.6-0.5c0.5-0.4,0.8-1,1.1-1.9c0.3-1.2,0.5-3.2,0.5-6.1s-0.2-4.8-0.5-5.9
		c-0.3-1.1-0.7-1.8-1.1-2.1C245.8,184.7,245.3,184.5,244.7,184.5z"/>
	<path class="st3" d="M267.2,205.1v-24.3h5.2v24.3H267.2z"/>
	<path class="st3" d="M287.1,205.1v-24.3h5.2v24.3H287.1z"/>
	<path class="st3" d="M314.4,180.7c2.5,0,4.4,0.8,5.8,2.5c1.7,2,2.5,5.3,2.5,9.9c0,4.6-0.8,7.9-2.5,9.9c-1.4,1.7-3.3,2.5-5.8,2.5
		c-2.5,0-4.5-0.9-6-2.7c-1.5-1.8-2.3-5.1-2.3-9.7c0-4.6,0.8-7.9,2.5-9.9C310,181.5,311.9,180.7,314.4,180.7z M314.4,184.5
		c-0.6,0-1.1,0.2-1.6,0.5c-0.5,0.4-0.8,1-1.1,1.9c-0.3,1.2-0.5,3.2-0.5,6.1s0.2,4.8,0.5,5.9c0.3,1.1,0.7,1.8,1.1,2.1
		c0.5,0.4,1,0.5,1.6,0.5c0.6,0,1.1-0.2,1.6-0.5c0.5-0.4,0.8-1,1.1-1.9c0.3-1.2,0.5-3.2,0.5-6.1s-0.2-4.8-0.5-5.9
		c-0.3-1.1-0.7-1.8-1.1-2.1C315.5,184.7,315,184.5,314.4,184.5z"/>
</g>
<g class="st0">
	<path class="st1" d="M124.7,379.4v10.9c0,2.5-0.5,4.9-1.6,7.1c-1.1,2.2-2.6,4.2-4.4,5.8c-1.9,1.7-4,3-6.5,3.9s-5.2,1.4-8,1.4
		c-2.9,0-5.6-0.5-8.1-1.4s-4.7-2.2-6.5-3.9c-1.9-1.6-3.3-3.6-4.4-5.8c-1.1-2.2-1.6-4.6-1.6-7.1v-16.9c0-2.5,0.5-4.9,1.6-7.1
		s2.5-4.2,4.4-5.8c1.9-1.7,4-3,6.5-3.9c2.5-0.9,5.2-1.4,8.1-1.4c2.5,0,4.8,0.3,7,1s4.2,1.7,5.9,2.9c1.7,1.2,3.2,2.7,4.4,4.4
		c1.2,1.7,2.1,3.5,2.7,5.4h-7.8c-0.9-2.3-2.4-4.1-4.4-5.3c-2-1.2-4.6-1.8-7.8-1.8c-1.8,0-3.4,0.3-4.9,0.9c-1.5,0.6-2.8,1.4-3.9,2.4
		c-1.1,1-2,2.2-2.6,3.7c-0.6,1.4-0.9,3-0.9,4.7v16.9c0,1.7,0.3,3.3,0.9,4.7c0.6,1.4,1.5,2.7,2.6,3.7c1.1,1,2.4,1.8,3.9,2.4
		c1.5,0.6,3.1,0.9,4.9,0.9c2,0,3.8-0.3,5.4-0.9c1.6-0.6,3.1-1.4,4.2-2.4c1.2-1,2.1-2.2,2.7-3.7c0.7-1.4,1-3,1-4.7v-4.7h-10.5v-6.2
		H124.7z"/>
	<path class="st1" d="M168.9,401.5v6.4h-31.8v-52h8.2v45.6H168.9z"/>
	<path class="st1" d="M197.6,355.2c2.9,0,5.7,0.5,8.3,1.5c2.6,1,4.8,2.4,6.7,4.1c1.9,1.7,3.4,3.8,4.5,6.1c1.1,2.3,1.6,4.8,1.6,7.5
		v15c0,2.6-0.5,5.1-1.6,7.5c-1.1,2.3-2.6,4.4-4.5,6.1c-1.9,1.7-4.1,3.1-6.7,4.1c-2.6,1-5.3,1.5-8.3,1.5c-2.9,0-5.7-0.5-8.2-1.5
		c-2.5-1-4.8-2.4-6.7-4.1c-1.9-1.7-3.4-3.8-4.5-6.1c-1.1-2.3-1.6-4.8-1.6-7.5v-15c0-2.6,0.5-5.1,1.6-7.5c1.1-2.3,2.6-4.4,4.5-6.1
		c1.9-1.7,4.1-3.1,6.7-4.1C191.9,355.7,194.7,355.2,197.6,355.2z M210.4,374.4c0-1.8-0.3-3.5-1-5.1c-0.7-1.5-1.6-2.8-2.7-4
		c-1.1-1.1-2.5-2-4-2.6c-1.5-0.6-3.2-0.9-5.1-0.9c-1.8,0-3.4,0.3-5,0.9c-1.5,0.6-2.9,1.5-4,2.6c-1.1,1.1-2,2.4-2.7,4
		c-0.7,1.5-1,3.2-1,5.1v15c0,1.8,0.3,3.5,1,5.1c0.7,1.5,1.6,2.8,2.7,4c1.1,1.1,2.5,2,4,2.6c1.5,0.6,3.2,0.9,5,0.9
		c1.8,0,3.5-0.3,5.1-0.9c1.5-0.6,2.9-1.5,4-2.6c1.1-1.1,2-2.4,2.7-4c0.7-1.5,1-3.2,1-5.1V374.4z"/>
	<path class="st1" d="M231.9,407.9v-52h21.7c2.2,0,4.3,0.2,6.3,0.7c2,0.5,3.7,1.2,5.1,2.3c1.5,1,2.6,2.4,3.5,4.1
		c0.9,1.7,1.3,3.8,1.3,6.3c0,1.7-0.2,3.1-0.7,4.4c-0.5,1.3-1.1,2.4-1.8,3.4c-0.7,1-1.6,1.8-2.5,2.4c-0.9,0.6-1.9,1.1-2.9,1.4
		c1.1,0.2,2.2,0.7,3.4,1.3c1.1,0.6,2.2,1.5,3.1,2.5c0.9,1,1.7,2.3,2.2,3.7c0.6,1.4,0.9,3.1,0.9,4.9c0,2.5-0.4,4.7-1.3,6.5
		c-0.9,1.8-2,3.3-3.5,4.5c-1.5,1.2-3.2,2-5.2,2.6c-2,0.6-4.1,0.8-6.3,0.8H231.9z M240.1,362v16.1h12.3c1.1,0,2.2-0.2,3.2-0.5
		c1-0.3,2-0.8,2.7-1.5c0.8-0.7,1.4-1.6,1.9-2.7c0.5-1.1,0.7-2.5,0.7-4.1c0-1.2-0.2-2.3-0.7-3.3c-0.5-0.9-1.1-1.7-1.9-2.3
		c-0.8-0.6-1.7-1.1-2.7-1.4c-1-0.3-2.1-0.5-3.2-0.5H240.1z M254.2,401.8c1.1,0,2.2-0.2,3.2-0.6c1-0.4,1.9-1,2.7-1.7
		c0.8-0.7,1.4-1.6,1.9-2.6c0.5-1,0.7-2.1,0.7-3.4c0-1.6-0.2-3-0.7-4.2c-0.5-1.2-1.1-2.2-1.9-3c-0.8-0.8-1.7-1.5-2.7-1.9
		c-1-0.4-2.1-0.6-3.2-0.6h-14.1v18H254.2z"/>
	<path class="st1" d="M277.2,407.9c0.5-1.5,1.1-3.6,2-6.3c0.9-2.7,1.8-5.7,2.9-9c1.1-3.3,2.2-6.8,3.3-10.4c1.2-3.6,2.3-7.1,3.3-10.4
		c1.1-3.3,2-6.4,2.9-9.2c0.9-2.8,1.6-5,2.2-6.7h8.8c0,0.1,0.3,0.9,0.8,2.4c0.5,1.5,1.1,3.5,1.9,5.9c0.8,2.4,1.6,5.2,2.6,8.2
		c1,3.1,2,6.2,3,9.4c1,3.2,2,6.3,3,9.4c1,3.1,1.9,5.8,2.6,8.2c0.8,2.4,1.4,4.4,1.9,5.9c0.5,1.5,0.7,2.3,0.8,2.4h-8.7l-3.5-12h-17.6
		l-3.5,12H277.2z M291.1,389.4h14.2l-7.1-24.7L291.1,389.4z"/>
	<path class="st1" d="M359.4,401.5v6.4h-31.8v-52h8.2v45.6H359.4z"/>
</g>
<g class="st0">
	<path class="st1" d="M93.2,445.1V468h18.3v-22.9h8.3v52h-8.3v-22.9H93.2v22.9h-8.3v-52H93.2z"/>
	<path class="st1" d="M169.6,445.1v6.4h-24.1V468h21.8v6.1h-21.8v16.6h24.1v6.4h-32.4v-52H169.6z"/>
	<path class="st1" d="M178.9,497.1c0.5-1.5,1.1-3.6,2-6.3c0.9-2.7,1.8-5.7,2.9-9c1.1-3.3,2.2-6.8,3.4-10.4c1.2-3.6,2.3-7.1,3.4-10.4
		c1.1-3.3,2.1-6.4,3-9.2c0.9-2.8,1.6-5,2.2-6.7h8.8c0.1,0.1,0.3,0.9,0.8,2.4c0.5,1.5,1.1,3.5,1.9,5.9c0.8,2.4,1.6,5.2,2.6,8.2
		c1,3.1,2,6.2,3,9.4c1,3.2,2,6.3,3,9.4c1,3.1,1.9,5.8,2.6,8.2s1.4,4.4,1.9,5.9c0.5,1.5,0.8,2.3,0.8,2.4h-8.7l-3.5-12h-17.7l-3.5,12
		H178.9z M192.9,478.6h14.3l-7.1-24.7L192.9,478.6z"/>
	<path class="st1" d="M264.9,490.7v6.4h-32.1v-52h8.3v45.6H264.9z"/>
	<path class="st1" d="M266,451.5v-6.4h42.3v6.4h-17.1v45.6h-8.3v-45.6H266z"/>
	<path class="st1" d="M329.6,445.1V468H348v-22.9h8.3v52H348v-22.9h-18.3v22.9h-8.3v-52H329.6z"/>
</g>
<g class="st0">
	<path class="st1" d="M116.6,534v6.4h-24v16.6h21.7v6.1H92.6v16.6h24v6.4H84.4v-52H116.6z"/>
	<path class="st1" d="M131.5,534h8.3l19.2,36.1V534h8.2v52h-8.2l-19.3-36.1V586h-8.2V534z"/>
	<path class="st1" d="M224,557.5v10.9c0,2.5-0.5,4.9-1.6,7.1c-1.1,2.2-2.6,4.2-4.4,5.8c-1.9,1.7-4,3-6.6,3.9
		c-2.5,0.9-5.2,1.4-8.1,1.4c-2.9,0-5.6-0.5-8.1-1.4c-2.5-0.9-4.7-2.2-6.6-3.9c-1.9-1.6-3.3-3.6-4.4-5.8c-1.1-2.2-1.6-4.6-1.6-7.1
		v-16.9c0-2.5,0.5-4.9,1.6-7.1c1.1-2.2,2.5-4.2,4.4-5.8c1.9-1.7,4-3,6.6-3.9c2.5-0.9,5.2-1.4,8.1-1.4c2.5,0,4.8,0.3,7.1,1
		c2.2,0.7,4.2,1.7,5.9,2.9c1.7,1.2,3.2,2.7,4.4,4.4c1.2,1.7,2.1,3.5,2.7,5.4h-7.8c-0.9-2.3-2.4-4.1-4.4-5.3c-2-1.2-4.7-1.8-7.9-1.8
		c-1.8,0-3.4,0.3-4.9,0.9c-1.5,0.6-2.8,1.4-3.9,2.4c-1.1,1-2,2.2-2.6,3.7c-0.6,1.4-0.9,3-0.9,4.7v16.9c0,1.7,0.3,3.3,0.9,4.7
		c0.6,1.4,1.5,2.7,2.6,3.7c1.1,1,2.4,1.8,3.9,2.4c1.5,0.6,3.1,0.9,4.9,0.9c2,0,3.8-0.3,5.5-0.9c1.7-0.6,3.1-1.4,4.2-2.4
		c1.2-1,2.1-2.2,2.7-3.7c0.7-1.4,1-3,1-4.7v-4.7h-10.5v-6.2H224z"/>
	<path class="st1" d="M247.8,534v52h-8.2v-52H247.8z"/>
	<path class="st1" d="M265.1,534h8.3l19.2,36.1V534h8.2v52h-8.2l-19.3-36.1V586h-8.2V534z"/>
	<path class="st1" d="M350.4,534v6.4h-24v16.6h21.7v6.1h-21.7v16.6h24v6.4h-32.2v-52H350.4z"/>
	<path class="st1" d="M397.6,534v6.4h-24v16.6h21.7v6.1h-21.7v16.6h24v6.4h-32.2v-52H397.6z"/>
	<path class="st1" d="M432.6,534c2.2,0,4.4,0.3,6.5,1c2.1,0.6,4,1.6,5.6,2.8c1.6,1.2,2.9,2.8,3.9,4.6c1,1.8,1.5,4,1.5,6.4
		c0,1.8-0.3,3.5-0.9,5.1c-0.6,1.5-1.4,2.9-2.4,4.1c-1,1.2-2.3,2.2-3.7,3c-1.4,0.8-2.9,1.4-4.5,1.8c0.5,0.2,1.1,0.8,1.9,1.7
		c0.8,0.9,1.8,2.3,2.8,4.4c0.7,1.4,1.6,3.1,2.6,5.1c1,1.9,1.9,3.8,2.9,5.5c0.9,1.8,1.7,3.3,2.3,4.5c0.6,1.3,1,1.9,1,2h-9.1
		c-0.4-0.6-0.9-1.7-1.6-3.2c-0.7-1.5-1.6-3-2.4-4.7c-0.9-1.7-1.8-3.4-2.6-5.1c-0.9-1.7-1.6-3.1-2.1-4.2c-0.5-0.9-1-1.8-1.6-2.6
		c-0.5-0.6-1.1-1.2-1.6-1.8c-0.6-0.5-1.2-0.8-1.9-0.8h-8.2V586h-8.2v-52H432.6z M420.8,557.6h11.8c1.3,0,2.5-0.2,3.6-0.5
		c1.1-0.3,2-0.9,2.9-1.6c0.8-0.7,1.5-1.7,1.9-2.8c0.5-1.1,0.7-2.4,0.7-3.9c0-3-0.9-5.2-2.6-6.6c-1.8-1.4-3.9-2.1-6.5-2.1h-11.8
		V557.6z"/>
	<path class="st1" d="M474.5,534v52h-8.2v-52H474.5z"/>
	<path class="st1" d="M491.8,534h8.3l19.2,36.1V534h8.2v52h-8.2L500,549.9V586h-8.2V534z"/>
	<path class="st1" d="M584.2,557.5v10.9c0,2.5-0.5,4.9-1.6,7.1c-1.1,2.2-2.6,4.2-4.4,5.8s-4,3-6.6,3.9s-5.2,1.4-8.1,1.4
		c-2.9,0-5.6-0.5-8.1-1.4c-2.5-0.9-4.7-2.2-6.6-3.9c-1.9-1.6-3.3-3.6-4.4-5.8c-1.1-2.2-1.6-4.6-1.6-7.1v-16.9c0-2.5,0.5-4.9,1.6-7.1
		c1.1-2.2,2.5-4.2,4.4-5.8c1.9-1.7,4-3,6.6-3.9c2.5-0.9,5.2-1.4,8.1-1.4c2.5,0,4.8,0.3,7.1,1c2.2,0.7,4.2,1.7,5.9,2.9
		c1.7,1.2,3.2,2.7,4.4,4.4c1.2,1.7,2.1,3.5,2.7,5.4h-7.8c-0.9-2.3-2.4-4.1-4.4-5.3c-2-1.2-4.7-1.8-7.9-1.8c-1.8,0-3.4,0.3-4.9,0.9
		c-1.5,0.6-2.8,1.4-3.9,2.4c-1.1,1-2,2.2-2.6,3.7c-0.6,1.4-0.9,3-0.9,4.7v16.9c0,1.7,0.3,3.3,0.9,4.7c0.6,1.4,1.5,2.7,2.6,3.7
		c1.1,1,2.4,1.8,3.9,2.4c1.5,0.6,3.1,0.9,4.9,0.9c2,0,3.8-0.3,5.5-0.9c1.7-0.6,3.1-1.4,4.2-2.4c1.2-1,2.1-2.2,2.8-3.7
		c0.7-1.4,1-3,1-4.7v-4.7h-10.5v-6.2H584.2z"/>
</g>
</svg>
