<?xml version="1.0" encoding="UTF-8"?>
<svg id="Layer_1" data-name="Layer 1" xmlns="http://www.w3.org/2000/svg" viewBox="0 0 128.23 97.76">
  <defs>
    <style>
      .cls-1, .cls-2 {
        stroke-width: 0px;
      }

      .cls-2 {
        fill: #bc460a;
      }
    </style>
  </defs>
  <g>
    <path class="cls-1" d="m9.68,2.09c.22-.49.46-.9.72-1.22.32-.35.67-.62,1.04-.83h-4.61c-.7,0-1.36.12-1.98.37-.62.25-1.19.59-1.7,1.04-.51.45-.91.99-1.22,1.61-.3.62-.47,1.3-.5,2.02-.03.23-.04.92-.04,2.07v7.48c0,.54,0,.99.02,1.35.01.36.02.6.02.72.03.73.2,1.4.5,2.02.3.62.71,1.16,1.22,1.61.51.45,1.07.8,1.7,1.04.62.25,1.28.37,1.98.37h4.61c-.38-.2-.73-.48-1.04-.83-.26-.32-.5-.72-.72-1.2-.22-.48-.33-1.09-.33-1.85V3.92c0-.72.11-1.33.33-1.83Z"/>
    <path class="cls-1" d="m23.75,5.09c-.06-.72-.24-1.4-.54-2.02-.3-.62-.71-1.16-1.22-1.61-.51-.45-1.07-.8-1.7-1.04-.62-.25-1.28-.37-1.98-.37h-4.61c.38.2.73.48,1.04.83.26.32.5.73.72,1.22.22.49.33,1.1.33,1.83v13.97c0,.75-.11,1.37-.33,1.85-.22.48-.46.88-.72,1.2-.32.35-.67.62-1.04.83h4.61c.7,0,1.36-.12,1.98-.37.62-.25,1.19-.59,1.7-1.04.51-.45.91-.99,1.22-1.61.3-.62.49-1.3.54-2.02v-.72c0-.36,0-.81.02-1.35.01-.54.02-1.12.02-1.76v-1.96c0-1.36,0-2.62-.02-3.76-.02-1.15-.02-1.83-.02-2.07Z"/>
    <path class="cls-1" d="m51.21,5.09c-.06-.72-.24-1.4-.54-2.02-.3-.62-.71-1.16-1.22-1.61-.51-.45-1.07-.8-1.7-1.04-.62-.25-1.28-.37-1.98-.37h-4.61c.38.2.73.48,1.04.83.26.32.5.73.72,1.22.22.49.33,1.1.33,1.83v13.97c0,.75-.11,1.37-.33,1.85-.22.48-.46.88-.72,1.2-.32.35-.67.62-1.04.83h4.61c.7,0,1.36-.12,1.98-.37.62-.25,1.19-.59,1.7-1.04.51-.45.91-.99,1.22-1.61.3-.62.49-1.3.54-2.02v-.72c0-.36,0-.81.02-1.35.01-.54.02-1.12.02-1.76v-1.96c0-1.36,0-2.62-.02-3.76-.02-1.15-.02-1.83-.02-2.07Z"/>
    <path class="cls-1" d="m28.84,26.98c0,.75-.12,1.38-.35,1.87-.23.49-.48.9-.74,1.22-.32.35-.67.62-1.04.83h4.66c.7,0,1.36-.12,1.98-.37.62-.25,1.18-.6,1.68-1.07.49-.46.89-1,1.2-1.61.3-.61.49-1.29.54-2.04.03-.41.04-.81.04-1.22V1.83c0-.38.07-.67.22-.89.15-.22.3-.4.48-.54.2-.15.44-.26.7-.35h-9.36v26.94Z"/>
    <path class="cls-1" d="m78.58,1.63c-.49-.51-1.07-.91-1.74-1.2-.67-.29-1.36-.43-2.09-.43h-11.53c-.7,0-1.36.12-1.98.37-.62.25-1.19.6-1.7,1.07-.51.46-.92,1.01-1.24,1.63-.32.62-.49,1.3-.52,2.02-.03.23-.04.91-.04,2.04v7.51c0,.54,0,.99.02,1.35.01.36.02.59.02.67.03.75.2,1.44.52,2.04.32.61.73,1.15,1.24,1.61.51.46,1.07.82,1.7,1.07.62.25,1.28.37,1.98.37h7.96c.52.03,1.04.05,1.54.07.51.01,1.01.02,1.5.02.81,0,1.56-.04,2.24-.13.68-.09,1.27-.26,1.76-.52.49-.26.88-.62,1.15-1.09.28-.46.41-1.09.41-1.87,0-.99-.34-1.82-1.02-2.5-.68-.68-1.52-1.02-2.5-1.02s-1.82.34-2.5,1.02c-.68.68-1.02,1.52-1.02,2.5,0,1.04.38,1.91,1.13,2.61-.43.31-.94.54-1.5.7h-4.89c-.25-.17-.5-.37-.73-.61-.27-.32-.51-.72-.73-1.22-.22-.49-.33-1.12-.33-1.87V3.92c0-.75.11-1.37.33-1.85.22-.48.47-.88.73-1.2.23-.25.49-.46.76-.65h2.88c.26.19.51.4.74.65.26.32.51.72.74,1.2.23.48.35,1.1.35,1.85v4.83c0,.75-.12,1.37-.35,1.85-.23.48-.48.88-.74,1.2-.32.35-.67.62-1.04.83h4.66c.7,0,1.36-.12,1.98-.37.62-.25,1.18-.59,1.68-1.04.49-.45.89-.99,1.2-1.61.3-.62.49-1.3.54-2.02v-.39c0-.2,0-.41.02-.63.01-.22.02-.41.02-.59v-.3c0-.81-.15-1.56-.44-2.24-.29-.68-.68-1.28-1.17-1.78Z"/>
    <path class="cls-1" d="m94.59,20.84c-.15-.23-.22-.54-.22-.91V6.31c0-.41-.01-.83-.04-1.26-.03-.73-.2-1.4-.5-2.02-.3-.62-.71-1.16-1.22-1.61-.51-.45-1.07-.8-1.7-1.04-.62-.25-1.28-.37-1.98-.37h-4.66c.38.23.73.52,1.04.87.26.32.51.72.74,1.2.23.48.35,1.1.35,1.85v17.84h9.36c-.26-.09-.49-.2-.7-.35-.17-.15-.33-.33-.48-.57Z"/>
    <path class="cls-1" d="m109.04,20.84c-.15-.23-.22-.54-.22-.91V6.31c0-.41-.01-.83-.04-1.26-.06-.73-.24-1.4-.54-2.02s-.7-1.16-1.2-1.61c-.49-.45-1.05-.8-1.68-1.04-.62-.25-1.28-.37-1.98-.37h-4.66c.38.23.73.52,1.04.87.26.32.51.72.74,1.2.23.48.35,1.1.35,1.85v17.84h9.36c-.26-.09-.49-.2-.7-.35-.17-.15-.33-.33-.48-.57Z"/>
    <path class="cls-1" d="m38.49,57.71c-.22-.49-.33-1.12-.33-1.87v-17.84h-9.36c.26.09.49.2.7.35.17.15.33.33.48.57.14.23.22.52.22.87v13.66c0,.41.01.81.04,1.22.03.75.2,1.44.5,2.04.3.61.71,1.15,1.22,1.61.51.46,1.07.82,1.7,1.07.17.07.35.1.52.15h-8.64c-.26-.17-.51-.37-.74-.61-.26-.32-.5-.72-.72-1.22-.22-.49-.33-1.12-.33-1.87v-17.84h-9.36c.26.09.49.2.7.35.17.15.33.33.48.57.15.23.22.52.22.87v13.66c0,.41.01.81.04,1.22.03.75.2,1.44.52,2.04.32.61.73,1.15,1.22,1.61s1.05.82,1.68,1.07c.17.07.35.1.52.15h-8.62c-.25-.17-.49-.37-.71-.61-.26-.32-.5-.72-.72-1.22-.22-.49-.33-1.12-.33-1.87v-17.84H0c.26.09.49.2.7.35.17.15.34.33.5.57.16.23.24.52.24.87v12.92c0,.06,0,.19-.02.39-.01.2-.02.45-.02.74,0,.84.14,1.62.41,2.35.28.73.65,1.35,1.13,1.87.48.52,1.06.94,1.74,1.24.68.3,1.41.46,2.2.46h33.38c-.38-.2-.73-.48-1.04-.83-.26-.32-.5-.72-.72-1.22Z"/>
    <path class="cls-1" d="m51.91,45.05c.96,0,1.78-.35,2.46-1.04.68-.7,1.02-1.52,1.02-2.48s-.34-1.82-1.02-2.5c-.68-.68-1.5-1.02-2.46-1.02s-1.82.34-2.5,1.02c-.68.68-1.02,1.52-1.02,2.5s.34,1.78,1.02,2.48c.68.7,1.52,1.04,2.5,1.04Z"/>
    <path class="cls-1" d="m69.01,58.87c-.15-.22-.22-.51-.22-.89v-13.66c0-.41-.01-.81-.04-1.22-.06-.72-.24-1.4-.54-2.02-.3-.62-.7-1.17-1.19-1.63-.49-.46-1.06-.82-1.69-1.07-.64-.25-1.29-.37-1.95-.37h-4.65c.38.23.73.52,1.06.87.26.32.51.72.73,1.2s.33,1.1.33,1.85v17.62h-4.66c-.25-.17-.49-.37-.71-.61-.26-.32-.5-.72-.71-1.22s-.32-1.12-.32-1.87v-4.83c0-.72.11-1.33.32-1.83.22-.49.45-.9.71-1.22.32-.35.66-.62,1.03-.83h-4.6c-.69,0-1.35.12-1.98.37-.62.25-1.19.59-1.69,1.04-.51.45-.92.99-1.24,1.61s-.49,1.3-.52,2.02v2.48c.03.75.2,1.44.52,2.04s.73,1.15,1.24,1.61c.51.46,1.07.82,1.69,1.07.62.25,1.28.37,1.98.37h18.29c-.26-.09-.49-.2-.7-.35-.17-.15-.33-.33-.48-.54Z"/>
    <path class="cls-1" d="m93.99,45.05c.99,0,1.82-.35,2.5-1.04.68-.7,1.02-1.52,1.02-2.48s-.34-1.82-1.02-2.5c-.68-.68-1.52-1.02-2.5-1.02s-1.78.34-2.46,1.02-1.02,1.52-1.02,2.5.34,1.78,1.02,2.48,1.5,1.04,2.46,1.04Z"/>
    <path class="cls-1" d="m78.99,48.46c.65.28,1.34.41,2.06.41h4.65c-.4-.23-.76-.52-1.08-.87-.26-.32-.5-.72-.71-1.2-.22-.48-.32-1.09-.32-1.85v-3.09c0-.72.11-1.33.32-1.83.22-.49.45-.9.71-1.22.32-.35.67-.64,1.08-.87h-4.65c-.69,0-1.35.12-1.98.37-.62.25-1.19.6-1.69,1.07s-.91,1.01-1.22,1.63c-.3.62-.47,1.3-.5,2.02-.03.12-.04.23-.04.35,0,.78.15,1.52.43,2.2.29.68.69,1.26,1.19,1.74.51.48,1.09.86,1.74,1.13Z"/>
    <path class="cls-1" d="m96.32,50.38c-.51-.48-1.09-.86-1.74-1.13-.65-.28-1.32-.41-2.02-.41h-4.65c.38.23.73.52,1.06.87.26.32.51.72.73,1.2s.33,1.1.33,1.85v3.09c0,.75-.11,1.37-.33,1.85-.22.48-.46.88-.73,1.2-.22.24-.47.44-.72.61h-4.85c-.49-.15-.97-.38-1.42-.69.78-.7,1.17-1.55,1.17-2.57s-.35-1.82-1.04-2.5c-.7-.68-1.52-1.02-2.48-1.02s-1.82.34-2.5,1.02c-.68.68-1.02,1.52-1.02,2.5s.34,1.78,1.02,2.48c.68.7,1.52,1.04,2.5,1.04h2.55c.62,0,1.46-.01,2.5-.04h7.89c.67,0,1.32-.12,1.95-.37.64-.25,1.2-.59,1.69-1.04.49-.45.89-.99,1.19-1.61.3-.62.48-1.3.54-2.02v-.3s.01-.05.04-.08c0-.77-.16-1.49-.45-2.16-.3-.68-.71-1.26-1.22-1.74Z"/>
    <path class="cls-1" d="m97.99,54.32v-.04s0,0,0,0c0,.01,0,.03,0,.04Z"/>
    <path class="cls-1" d="m127.06,58.84c-.15-.23-.22-.54-.22-.91v-12.88c0-.96-.1-1.86-.3-2.72-.2-.86-.52-1.6-.96-2.24-.44-.64-.99-1.15-1.68-1.52-.68-.38-1.52-.57-2.5-.57h-4.61c.38.23.73.52,1.04.87.26.32.5.72.72,1.2.22.48.33,1.1.33,1.85v17.84h9.36c-.26-.09-.49-.2-.7-.35-.17-.15-.33-.33-.48-.57Z"/>
    <path class="cls-1" d="m107.67,29.32c-.68.3-1.26.72-1.74,1.24-.48.52-.86,1.15-1.13,1.87-.28.73-.41,1.51-.41,2.35,0,.29,0,.54.02.74.02.2.02.33.02.39v22.02c0,.38-.07.68-.22.91-.14.23-.3.42-.48.57-.2.15-.44.26-.7.35h9.36v-26.98c0-.72.11-1.33.33-1.83.22-.49.46-.9.72-1.22.32-.35.67-.64,1.04-.87h-4.61c-.78,0-1.52.15-2.2.46Z"/>
    <path class="cls-1" d="m24,96.84c-.15-.23-.22-.54-.22-.91v-22.76c0-.41-.02-.81-.04-1.22-.03-.72-.2-1.4-.5-2.02s-.71-1.17-1.22-1.63c-.51-.46-1.07-.82-1.7-1.07-.62-.25-1.28-.37-1.98-.37h-4.66c.38.23.72.52,1.04.87.26.32.51.72.74,1.22.23.49.35,1.1.35,1.83v26.76h-4.65c-.25-.17-.5-.37-.73-.61-.27-.32-.51-.72-.73-1.22-.22-.49-.33-1.12-.33-1.87v-13.92c0-.75.11-1.37.33-1.85.22-.48.47-.88.73-1.2.33-.35.68-.64,1.07-.87h-4.61c-.7,0-1.36.12-1.98.37-.62.25-1.19.6-1.7,1.07-.51.46-.92,1.01-1.24,1.63-.32.62-.49,1.3-.52,2.02-.03.23-.04.91-.04,2.04v7.51c0,.54,0,.99.02,1.35.02.36.02.59.02.67.03.75.2,1.44.52,2.04.32.61.73,1.15,1.24,1.61.51.46,1.07.82,1.7,1.07.62.25,1.28.37,1.98.37h18.28c-.26-.09-.49-.2-.7-.35-.17-.15-.33-.33-.48-.57Z"/>
    <path class="cls-1" d="m53.19,96.87c-.15-.22-.22-.51-.22-.89v-13.66c0-.41-.01-.81-.04-1.22-.06-.72-.24-1.4-.54-2.02-.3-.62-.7-1.17-1.19-1.63-.49-.46-1.06-.82-1.69-1.07-.64-.25-1.29-.37-1.95-.37h-4.65c.38.23.73.52,1.06.87.26.32.51.72.73,1.2s.33,1.1.33,1.85v17.62h-4.66c-.25-.17-.49-.37-.71-.61-.26-.32-.5-.72-.71-1.22s-.32-1.12-.32-1.87v-4.83c0-.72.11-1.33.32-1.83.22-.49.45-.9.71-1.22.32-.35.66-.62,1.03-.83h-4.6c-.69,0-1.35.12-1.98.37-.62.25-1.19.59-1.69,1.04-.51.45-.92.99-1.24,1.61s-.49,1.3-.52,2.02v2.48c.03.75.2,1.44.52,2.04s.73,1.15,1.24,1.61c.51.46,1.07.82,1.69,1.07.62.25,1.28.37,1.98.37h18.29c-.26-.09-.49-.2-.7-.35-.17-.15-.33-.33-.48-.54Z"/>
    <path class="cls-1" d="m67.77,66.91h-9.36c.26.09.49.2.7.35.17.15.33.33.48.57.15.23.22.52.22.87v22.02c0,.06,0,.2-.02.41-.01.22-.02.46-.02.72,0,.84.14,1.62.41,2.35.28.73.65,1.35,1.13,1.87.48.52,1.05.94,1.72,1.24.67.3,1.41.46,2.22.46h4.61c-.38-.2-.73-.48-1.04-.83-.26-.32-.5-.72-.72-1.2-.22-.48-.33-1.09-.33-1.85v-12.92c.09-.81.31-1.53.67-2.15.36-.62.8-1.14,1.31-1.54.51-.41,1.04-.72,1.61-.94.57-.22,1.11-.33,1.63-.33h-5.22v-9.09Z"/>
    <path class="cls-1" d="m100.1,97.41c-.17-.15-.33-.33-.48-.54-.15-.22-.22-.51-.22-.89v-13.66c0-.41-.01-.81-.04-1.22-.06-.72-.24-1.4-.54-2.02-.3-.62-.7-1.17-1.19-1.63-.49-.46-1.06-.82-1.69-1.07-.64-.25-1.29-.37-1.95-.37h-4.65c.38.23.73.52,1.06.87.26.32.51.72.73,1.2s.33,1.1.33,1.85v17.62h-4.66c-.25-.17-.49-.37-.71-.61-.26-.32-.5-.72-.71-1.22s-.32-1.12-.32-1.87v-4.83c0-.72.11-1.33.32-1.83.22-.49.45-.9.71-1.22.32-.35.66-.62,1.03-.83h-4.6c-.69,0-1.35.12-1.98.37-.62.25-1.19.59-1.69,1.04-.51.45-.92.99-1.24,1.61s-.49,1.3-.52,2.02v2.48c.03.75.2,1.44.52,2.04s.73,1.15,1.24,1.61c.51.46,1.07.82,1.69,1.07.62.25,1.28.37,1.98.37h18.29c-.26-.09-.49-.2-.7-.35Z"/>
  </g>
  <g>
    <path class="cls-2" d="m36.09,83.05c.96,0,1.78-.35,2.46-1.04.68-.7,1.02-1.52,1.02-2.48s-.34-1.82-1.02-2.5c-.68-.68-1.5-1.02-2.46-1.02s-1.82.34-2.5,1.02c-.68.68-1.02,1.52-1.02,2.5s.34,1.78,1.02,2.48c.68.7,1.52,1.04,2.5,1.04Z"/>
    <path class="cls-2" d="m82.52,83.05c.96,0,1.78-.35,2.46-1.04.68-.7,1.02-1.52,1.02-2.48s-.34-1.82-1.02-2.5c-.68-.68-1.5-1.02-2.46-1.02s-1.82.34-2.5,1.02c-.68.68-1.02,1.52-1.02,2.5s.34,1.78,1.02,2.48c.68.7,1.52,1.04,2.5,1.04Z"/>
    <circle class="cls-2" cx="107.45" cy="94.09" r="3.67"/>
  </g>
</svg>